:FULLY-SPECIFIED
:FORCE-ALL-JOINTS-BE-3DOF
:DEGREES
883
root 3.85195 16.5305 30.5312 -10.8246 23.6768 359.35
lfemur -15.8095 19.9983 -19.0116
ltibia 40.4913 0 0
lfoot -12.9326 0.0690648 0
ltoes -1.37978 0 0
rfemur -80.7132 -24.4467 36.5168
rtibia 101.126 0 0
rfoot 19.264 26.205 0
rtoes -8.14353 0 0
lowerback 15.0059 -4.01209 -6.64789
upperback 4.97444 -6.28636 -2.38034
thorax -2.64296 -3.11384 2.26165
lowerneck -7.71871 -3.24517 1.71638
upperneck 4.65939 -4.84264 4.94114
head 2.93726 -2.18998 1.06474
lclavicle -3.12092e-14 -4.77083e-15 0
lhumerus -33.0312 -40.5423 88.3441
lradius 60.5977 0 0
lwrist 19.6497 0 0
lhand 25.8347 11.8689 0
lfingers 7.12502 0 0
lthumb 49.9264 33.1302 0
rclavicle -3.12092e-14 -4.77083e-15 0
rhumerus -49.2556 -29.6742 -46.9493
rradius 72.2992 0 0
rwrist -23.3678 0 0
rhand -47.7649 -54.4874 0
rfingers 7.12502 0 0
rthumb -20.4424 -803.431 0
884
root 3.8436 16.5254 30.5931 -10.4641 23.7411 -0.596884
lfemur -16.1747 20.4531 -18.952
ltibia 40.9225 -0 0
lfoot -13.1773 0.649029 0.0466622
ltoes -1.59023 0 0
rfemur -79.7476 -25.0076 36.1981
rtibia 101.33 -0 0
rfoot 19.1199 25.4365 0.120787
rtoes -6.90415 0 0
lowerback 14.7526 -4.02026 -6.60402
upperback 4.8695 -6.27516 -2.40023
thorax -2.61641 -3.10839 2.2062
lowerneck -7.72906 -3.33966 1.60347
upperneck 4.57759 -4.95581 4.98122
head 2.92004 -2.24917 1.09207
lclavicle -3.1539e-14 -3.70498e-15 -3.33478e-31
lhumerus -33.5149 -40.9439 89.1364
lradius 60.7147 -0 0
lwrist 19.4008 0 0
lhand 26.3319 12.1547 -0.0255209
lfingers 7.12502 -0 0
lthumb 50.391 33.2466 -0.00341022
rclavicle -3.1539e-14 -3.70498e-15 -3.33478e-31
rhumerus -48.5555 -29.2911 -48.4391
rradius 73.88 -0 0
rwrist -23.5256 0 0
rhand -46.9862 -53.787 0.554147
rfingers 7.12502 -0 0
rthumb -19.7116 -82.6338 0.575715
885
root 3.83713 16.5204 30.6554 -10.074 23.7949 -0.549121
lfemur -16.6461 20.9299 -18.9222
ltibia 41.4665 -0 0
lfoot -13.4152 1.19265 0.092125
ltoes -1.62716 0 0
rfemur -78.3027 -25.5183 35.4602
rtibia 101.27 -0 0
rfoot 18.8507 24.2261 0.287489
rtoes -5.18702 0 0
lowerback 14.434 -4.00833 -6.53081
upperback 4.73588 -6.23036 -2.40427
thorax -2.58762 -3.08565 2.143
lowerneck -7.72963 -3.46408 1.46747
upperneck 4.50969 -5.10649 5.01288
head 2.90758 -2.32745 1.11886
lclavicle -3.1474e-14 -2.48973e-15 -6.91911e-31
lhumerus -34.1346 -41.2523 90.0502
lradius 60.8154 -0 0
lwrist 19.1158 0 0
lhand 26.7474 12.4192 -0.0511878
lfingers 7.12502 -0 0
lthumb 50.7805 33.3788 -0.00601519
rclavicle -3.1474e-14 -2.48973e-15 -6.91911e-31
rhumerus -47.7009 -28.5839 -50.3433
rradius 75.6341 -0 0
rwrist -23.5035 0 0
rhand -45.7248 -52.6826 1.27201
rfingers 7.12502 -0 0
rthumb -18.5143 -81.4224 1.3114
886
root 3.83217 16.5155 30.7181 -9.65709 23.8367 -0.505462
lfemur -17.2094 21.4212 -18.9181
ltibia 42.1056 -0 0
lfoot -13.6451 1.69524 0.135875
ltoes -1.50561 0 0
rfemur -76.4169 -25.9594 34.3328
rtibia 100.963 -0 0
rfoot 18.4645 22.6181 0.488482
rtoes -3.05189 0 0
lowerback 14.0558 -3.9776 -6.43113
upperback 4.57636 -6.15471 -2.39466
thorax -2.5566 -3.04709 2.07215
lowerneck -7.7211 -3.61471 1.31112
upperneck 4.45456 -5.29012 5.03695
head 2.89942 -2.4225 1.14511
lclavicle -3.10497e-14 -1.14518e-15 -1.05948e-30
lhumerus -34.8753 -41.471 91.0707
lradius 60.9006 -0 0
lwrist 18.7993 0 0
lhand 27.0892 12.6651 -0.0760522
lfingers 7.12502 -0 0
lthumb 51.1021 33.5245 -0.0078733
rclavicle -3.10497e-14 -1.14518e-15 -1.05948e-30
rhumerus -46.7418 -27.5627 -52.5914
rradius 77.5407 -0 0
rwrist -23.3169 0 0
rhand -44.0132 -51.1997 2.10989
rfingers 7.12502 -0 0
rthumb -16.8807 -79.8238 2.16338
887
root 3.82838 16.5107 30.7811 -9.2162 23.865 -0.4647
lfemur -17.8504 21.9195 -18.9354
ltibia 42.8221 -0 0
lfoot -13.8659 2.15206 0.177351
ltoes -1.24059 0 0
rfemur -74.1319 -26.3068 32.8499
rtibia 100.429 -0 0
rfoot 17.9693 20.6568 0.710691
rtoes -0.55855 0 0
lowerback 13.624 -3.92934 -6.30789
upperback 4.39369 -6.05093 -2.37366
thorax -2.52337 -2.99418 1.99374
lowerneck -7.70415 -3.78788 1.1371
upperneck 4.41111 -5.50212 5.05417
head 2.8951 -2.53196 1.1708
lclavicle -3.03013e-14 3.08579e-16 -1.41968e-30
lhumerus -35.7212 -41.6036 92.1817
lradius 60.9709 -0 0
lwrist 18.4563 0 0
lhand 27.3654 12.8952 -0.0993459
lfingers 7.12502 -0 0
lthumb 51.3631 33.6816 -0.00900318
rclavicle -3.03013e-14 3.08579e-16 -1.41968e-30
rhumerus -45.7307 -26.2395 -55.1129
rradius 79.5793 -0 0
rwrist -22.9815 0 0
rhand -41.8836 -49.3633 3.01871
rfingers 7.12502 -0 0
rthumb -14.841 -77.8641 3.08273
888
root 3.8254 16.5059 30.8443 -8.75417 23.8782 -0.425678
lfemur -18.5545 22.4174 -18.9692
ltibia 43.5984 -0 0
lfoot -14.0766 2.55851 0.215973
ltoes -0.84712 0 0
rfemur -71.4946 -26.5343 31.0505
rtibia 99.6872 -0 0
rfoot 17.3734 18.3864 0.940319
rtoes 2.23324 -0 0
lowerback 13.1443 -3.86481 -6.16401
upperback 4.19069 -5.92175 -2.3435
thorax -2.48797 -2.92841 1.90785
lowerneck -7.67947 -3.97987 0.948112
upperneck 4.37824 -5.7379 5.06533
head 2.89416 -2.6535 1.19594
lclavicle -2.92641e-14 1.85146e-15 -1.75626e-30
lhumerus -36.6557 -41.6539 93.3664
lradius 61.0272 -0 0
lwrist 18.0915 0 0
lhand 27.584 13.1119 -0.120445
lfingers 7.12502 -0 0
lthumb 51.5707 33.8479 -0.00940363
rclavicle -2.92641e-14 1.85146e-15 -1.75626e-30
rhumerus -44.7184 -24.6302 -57.8399
rradius 81.7293 -0 0
rwrist -22.5127 0 0
rhand -39.3697 -47.2001 3.94628
rfingers 7.12502 -0 0
rthumb -12.4269 -75.5713 4.01747
889
root 3.82287 16.501 30.9075 -8.27389 23.8747 -0.387284
lfemur -19.3068 22.9074 -19.0142
ltibia 44.4168 -0 0
lfoot -14.2761 2.90988 0.251121
ltoes -0.340152 0 0
rfemur -68.5565 -26.6159 28.9793
rtibia 98.7557 -0 0
rfoot 16.6862 15.8514 1.16355
rtoes 5.2637 -0 0
lowerback 12.6227 -3.78531 -6.00245
upperback 3.97012 -5.76991 -2.30645
thorax -2.45041 -2.85123 1.8146
lowerneck -7.64778 -4.187 0.746869
upperneck 4.35486 -5.99287 5.07115
head 2.89616 -2.78479 1.2205
lclavicle -2.79736e-14 3.46338e-15 -2.0541e-30
lhumerus -37.6616 -41.6266 94.6076
lradius 61.0701 -0 0
lwrist 17.7096 0 0
lhand 27.7532 13.3179 -0.138855
lfingers 7.12502 -0 0
lthumb 51.7322 34.0214 -0.00907075
rclavicle -2.79736e-14 3.46338e-15 -2.0541e-30
rhumerus -43.7517 -22.7547 -60.71
rradius 83.97 -0 0
rwrist -21.9262 0 0
rhand -36.5077 -44.7401 4.83959
rfingers 7.12502 -0 0
rthumb -9.67314 -72.9765 4.91492
890
root 3.82044 16.4959 30.9707 -7.77823 23.853 -0.348453
lfemur -20.0922 23.3824 -19.0646
ltibia 45.2598 -0 0
lfoot -14.4633 3.20146 0.282163
ltoes 0.265197 -0 0
rfemur -65.3744 -26.5289 26.6864
rtibia 97.6535 -0 0
rfoot 15.9182 13.0967 1.36722
rtoes 8.47306 -0 0
lowerback 12.065 -3.69217 -5.82612
upperback 3.73478 -5.59816 -2.26472
thorax -2.41072 -2.76413 1.71405
lowerneck -7.60985 -4.40556 0.536074
upperneck 4.33988 -6.26243 5.07237
head 2.90064 -2.92348 1.24448
lclavicle -2.64651e-14 5.12423e-15 -2.29991e-30
lhumerus -38.7219 -41.5268 95.8879
lradius 61.1006 -0 0
lwrist 17.3155 0 0
lhand 27.8809 13.5158 -0.154185
lfingers 7.12502 -0 0
lthumb 51.8549 34.1998 -0.00801248
rclavicle -2.64651e-14 5.12423e-15 -2.29991e-30
rhumerus -42.8709 -20.6378 -63.6681
rradius 86.2808 -0 0
rwrist -21.2375 0 0
rhand -33.3386 -42.0184 5.64736
rfingers 7.12502 -0 0
rthumb -6.61921 -70.1157 5.72414
891
root 3.81775 16.4906 31.0339 -7.27012 23.8114 -0.308165
lfemur -20.8952 23.8353 -19.114
ltibia 46.1095 -0 0
lfoot -14.6371 3.42858 0.308461
ltoes 0.953951 -0 0
rfemur -62.009 -26.2555 24.226
rtibia 96.3997 -0 0
rfoot 15.0814 10.1673 1.53943
rtoes 11.8016 -0 0
lowerback 11.4772 -3.58677 -5.63794
upperback 3.48742 -5.40928 -2.22054
thorax -2.36893 -2.66857 1.60632
lowerneck -7.56645 -4.63187 0.318444
upperneck 4.33221 -6.54198 5.06975
head 2.90717 -3.06723 1.26786
lclavicle -2.47739e-14 6.81394e-15 -2.48284e-30
lhumerus -39.8196 -41.3605 97.19
lradius 61.1192 -0 0
lwrist 16.9138 0 0
lhand 27.9753 13.7083 -0.166133
lfingers 7.12502 -0 0
lthumb 51.946 34.3811 -0.00626035
rclavicle -2.47739e-14 6.81394e-15 -2.48284e-30
rhumerus -42.1088 -18.3086 -66.6664
rradius 88.6411 -0 0
rwrist -20.4622 0 0
rhand -29.9086 -39.0762 6.32257
rfingers 7.12502 -0 0
rthumb -3.31016 -67.0309 6.39849
892
root 3.81446 16.4849 31.0968 -6.75247 23.7485 -0.265444
lfemur -21.7 24.2591 -19.1552
ltibia 46.9484 -0 0
lfoot -14.7965 3.58655 0.329383
ltoes 1.71111 -0 0
rfemur -58.5234 -25.785 21.6551
rtibia 95.013 -0 0
rfoot 14.1886 7.10899 1.67014
rtoes 15.1894 -0 0
lowerback 10.8651 -3.47058 -5.4408
upperback 3.23079 -5.20604 -2.17609
thorax -2.32505 -2.56602 1.49149
lowerneck -7.51844 -4.86224 0.0967084
upperneck 4.33075 -6.82694 5.06401
head 2.91528 -3.21371 1.29064
lclavicle -2.29353e-14 8.5124e-15 -2.59491e-30
lhumerus -40.9387 -41.1345 98.4974
lradius 61.1268 -0 0
lwrist 16.5095 0 0
lhand 28.0445 13.8978 -0.174472
lfingers 7.12502 -0 0
lthumb 52.0129 34.563 -0.00387861
rclavicle -2.29353e-14 8.5124e-15 -2.59491e-30
rhumerus -41.4903 -15.7997 -69.6653
rradius 91.0302 -0 0
rwrist -19.6159 0 0
rhand -26.2698 -35.9614 6.8251
rfingers 7.12502 -0 0
rthumb 0.202978 -63.7705 6.89829
893
root 3.81019 16.4789 31.1594 -6.22824 23.6626 -0.219351
lfemur -22.4905 24.6472 -19.181
ltibia 47.7589 -0 0
lfoot -14.9403 3.67071 0.344318
ltoes 2.52162 -0 0
rfemur -54.9809 -25.1151 19.0308
rtibia 93.5124 -0 0
rfoot 13.2541 3.96759 1.75165
rtoes 18.5769 -0 0
lowerback 10.2345 -3.34514 -5.23751
upperback 2.96763 -4.99127 -2.1335
thorax -2.2791 -2.45795 1.36965
lowerneck -7.46671 -5.09301 -0.126388
upperneck 4.3344 -7.11268 5.05592
head 2.92455 -3.36056 1.31281
lclavicle -2.09848e-14 1.01995e-14 -2.63142e-30
lhumerus -42.0637 -40.8565 99.7944
lradius 61.1241 -0 0
lwrist 16.1071 0 0
lhand 28.0964 14.087 -0.179041
lfingers 7.12502 -0 0
lthumb 52.0627 34.7434 -0.000970476
rclavicle -2.09848e-14 1.01995e-14 -2.63142e-30
rhumerus -41.0323 -13.1469 -72.6317
rradius 93.4275 -0 0
rwrist -18.7141 0 0
rhand -22.4797 -32.7279 7.12424
rfingers 7.12502 -0 0
rthumb 3.86362 -60.3889 7.1932
894
root 3.80461 16.4725 31.2216 -5.70044 23.552 -0.168988
lfemur -23.2503 24.9932 -19.1832
ltibia 48.5233 -0 0
lfoot -15.0674 3.67637 0.352679
ltoes 3.37048 -0 0
rfemur -51.4425 -24.2524 16.4078
rtibia 91.9166 -0 0
rfoot 12.2929 0.789425 1.77897
rtoes 21.9041 -0 0
lowerback 9.5912 -3.2121 -5.03085
upperback 2.70062 -4.76779 -2.09487
thorax -2.23109 -2.34583 1.24087
lowerneck -7.41219 -5.32051 -0.348082
upperneck 4.34204 -7.39461 5.04625
head 2.93452 -3.50545 1.33437
lclavicle -1.89577e-14 1.18552e-14 -2.59113e-30
lhumerus -43.1805 -40.5351 101.066
lradius 61.1119 -0 0
lwrist 15.7117 0 0
lhand 28.1393 14.2785 -0.179737
lfingers 7.12502 -0 0
lthumb 52.1027 34.9201 0.00231818
rclavicle -1.89577e-14 1.18552e-14 -2.59113e-30
rhumerus -40.7447 -10.3877 -75.5379
rradius 95.8123 -0 0
rwrist -17.7724 0 0
rhand -18.6001 -29.4341 7.20066
rfingers 7.12502 -0 0
rthumb 7.61098 -56.945 7.26431
